<?xml version="1.0" standalone="no"?>
<!DOCTYPE svg PUBLIC "-//W3C//DTD SVG 20010904//EN"
 "http://www.w3.org/TR/2001/REC-SVG-20010904/DTD/svg10.dtd">
<svg version="1.0" xmlns="http://www.w3.org/2000/svg"
 width="281.000000pt" height="281.000000pt" viewBox="0 0 281.000000 281.000000"
 preserveAspectRatio="xMidYMid meet">

<g transform="translate(0.000000,281.000000) scale(0.100000,-0.100000)"
fill="#000000" stroke="none">
<path d="M0 2485 c0 -300 4 -349 25 -315 9 15 21 12 41 -7 9 -10 22 -18 28
-18 13 -1 50 -19 91 -43 21 -13 45 -17 82 -15 31 2 53 -1 53 -7 0 -6 8 -10 19
-10 20 0 45 -23 35 -32 -3 -3 -24 -3 -47 0 -40 5 -41 5 -24 -13 15 -14 16 -20
5 -27 -11 -8 -11 -10 0 -15 10 -4 9 -8 -5 -18 -17 -13 -17 -14 -1 -20 10 -4
16 -11 13 -15 -8 -13 36 -50 58 -50 13 0 17 5 12 19 -7 24 21 36 41 17 23 -24
17 -46 -13 -46 -28 -1 -28 -1 -6 -13 21 -12 22 -14 7 -35 -8 -12 -21 -22 -29
-22 -13 0 -128 62 -153 82 -9 8 -20 8 -38 -1 -15 -6 -34 -9 -44 -6 -10 3 -21
1 -24 -4 -4 -6 -18 -6 -38 0 -23 6 -34 5 -40 -4 -6 -9 -12 -8 -22 6 -7 9 -16
17 -20 17 -3 0 -6 -38 -6 -85 0 -78 2 -85 20 -85 11 0 20 -5 20 -11 0 -6 -9
-13 -20 -16 -20 -5 -20 -14 -20 -849 l0 -844 1098 0 c1086 0 1097 0 1110 20 7
11 17 20 24 20 6 0 3 -9 -7 -20 -23 -25 -11 -26 21 -1 16 12 32 17 47 13 22
-6 22 -7 -3 -10 -42 -6 -41 -17 0 -19 37 -2 41 0 56 35 15 35 16 36 30 18 11
-15 14 -16 14 -5 0 9 7 16 15 16 19 0 19 -8 0 -33 -19 -25 -19 -34 0 -34 9 0
19 10 24 23 11 28 51 74 51 58 0 -6 -6 -27 -14 -46 l-15 -34 47 2 c46 2 47 3
61 45 7 24 18 41 25 39 6 -2 16 3 23 12 11 14 12 13 13 -9 l1 -25 10 23 c5 13
14 20 19 17 7 -4 8 -11 2 -18 -5 -7 -6 -21 -1 -32 7 -19 8 -19 8 3 1 12 7 22
16 22 17 0 26 16 54 95 24 68 24 65 13 65 -5 0 -16 -25 -26 -55 -12 -39 -21
-53 -31 -48 -8 3 -15 15 -15 28 0 22 -3 23 -62 21 -74 -3 -196 17 -239 40 -17
8 -28 11 -25 5 19 -30 -49 10 -82 49 -12 13 -12 13 -6 0 5 -12 4 -12 -6 -3 -7
6 -18 10 -24 9 -6 -2 -8 -1 -4 1 14 8 8 25 -6 20 -15 -6 -107 35 -123 55 -16
20 -20 73 -7 86 6 6 14 10 16 9 2 -1 -3 4 -11 10 -8 7 -12 13 -8 13 3 0 -14
39 -39 86 -25 47 -43 88 -40 91 8 8 5 12 50 -79 38 -80 96 -156 96 -127 0 8
-6 24 -14 34 -16 22 -10 56 10 48 8 -3 14 -9 14 -15 0 -5 -4 -6 -10 -3 -6 3
-10 1 -10 -5 0 -7 7 -10 15 -6 8 3 15 1 15 -4 0 -6 5 -10 11 -10 8 0 8 5 -1
15 -10 12 -10 15 4 15 10 0 16 9 16 25 0 14 5 25 10 25 6 0 -24 33 -66 72 -42
40 -80 73 -85 73 -7 0 -49 71 -49 83 0 3 7 -1 15 -8 8 -7 15 -18 15 -24 0 -16
154 -166 171 -167 8 -1 21 -1 29 0 13 2 13 1 0 -9 -12 -9 -10 -10 10 -8 14 1
30 -1 35 -4 6 -4 12 2 12 13 1 12 -2 17 -10 13 -7 -4 -9 -4 -5 1 4 4 24 9 44
11 33 3 36 2 30 -20 -5 -19 2 -31 29 -55 20 -17 39 -31 44 -31 4 0 13 -11 19
-25 9 -19 19 -25 43 -25 26 0 30 3 24 18 -4 9 -10 29 -13 44 -2 16 -9 28 -15
28 -19 0 4 15 26 17 85 9 118 23 85 36 -10 3 -10 7 -1 17 9 10 7 18 -10 36
l-22 24 -85 -18 c-80 -17 -85 -19 -82 -42 2 -18 0 -22 -9 -13 -6 6 -13 28 -16
49 -3 22 -10 45 -16 52 -8 11 -7 16 6 23 9 6 17 17 17 25 0 21 20 39 52 47 38
10 51 38 32 65 -8 12 -23 22 -32 22 -12 0 -13 -3 -4 -12 24 -24 11 -26 -15 -2
-27 25 -40 69 -18 60 17 -6 11 58 -8 84 -8 12 -25 29 -37 37 l-22 15 21 -41
c12 -23 17 -41 11 -41 -6 0 -8 -5 -4 -12 4 -7 3 -8 -5 -4 -6 4 -9 12 -5 17 3
6 3 17 -1 27 -5 13 -8 13 -14 4 -6 -10 -13 -6 -26 15 l-18 28 21 -19 c27 -24
28 -14 3 22 -11 15 -22 47 -25 71 -9 71 -61 148 -129 191 -57 37 -64 54 -17
45 47 -9 170 -107 170 -135 0 -7 8 -24 19 -38 20 -30 37 -97 21 -87 -16 10
-11 -22 6 -39 22 -22 31 -20 36 9 3 14 1 25 -4 25 -5 0 -7 4 -4 8 3 5 -2 21
-10 37 -12 23 -12 30 -2 37 9 5 9 8 2 8 -7 0 -14 7 -17 14 -4 11 -1 13 11 10
17 -5 13 -1 -43 40 -21 15 -15 34 7 20 17 -11 48 -13 42 -2 -3 4 -12 8 -20 8
-8 0 -12 5 -9 10 3 6 1 10 -4 10 -6 0 -11 7 -11 17 0 9 -11 31 -26 50 -14 18
-22 33 -18 33 3 0 -1 11 -10 25 -9 14 -12 25 -7 25 10 0 9 25 -2 36 -4 4 -7
16 -7 26 0 10 -4 18 -10 18 -5 0 -10 5 -10 12 0 16 -51 68 -66 68 -7 0 -12 9
-11 20 2 24 15 25 42 3 16 -13 17 -15 3 -10 -26 9 -22 -7 5 -18 12 -6 22 -16
22 -22 0 -7 10 -20 23 -28 33 -24 27 -1 -10 36 -24 24 -28 31 -13 26 12 -5 5
6 -18 28 -32 29 -42 34 -53 24 -8 -7 -13 -18 -10 -25 3 -8 0 -11 -10 -7 -7 3
-14 9 -14 14 0 5 -5 9 -11 9 -6 0 -9 -7 -6 -14 4 -10 1 -13 -9 -9 -7 3 -14 9
-14 15 0 5 -4 7 -9 3 -6 -3 -8 8 -5 27 5 26 0 40 -20 62 -13 17 -23 33 -21 37
3 4 -4 9 -15 12 -10 3 -20 1 -22 -5 -2 -5 -22 1 -45 13 -23 12 -40 25 -38 29
8 13 -43 32 -74 28 -17 -3 -31 -3 -31 -2 0 12 37 34 58 34 24 1 25 2 9 11 -12
7 -27 7 -48 0 -16 -5 -29 -8 -29 -5 0 3 -7 -2 -16 -10 -8 -9 -20 -13 -26 -10
-6 4 -8 2 -4 -4 3 -6 2 -13 -3 -16 -5 -4 -13 -1 -16 5 -4 5 -13 8 -21 5 -8 -3
-14 -3 -14 0 0 2 10 9 23 14 l22 9 -23 0 c-12 1 -21 6 -20 12 2 6 -7 15 -19
20 -13 4 -23 5 -23 0 0 -5 -25 -7 -55 -6 -52 3 -75 -8 -37 -18 16 -4 16 -5 -1
-6 -10 0 -27 4 -38 10 -13 6 -25 7 -32 1 -7 -5 -23 -13 -36 -17 -14 -4 -34
-16 -45 -26 -11 -11 -26 -19 -33 -19 -7 0 -13 -5 -13 -11 0 -8 -14 -10 -45 -6
-43 6 -51 2 -46 -25 2 -12 -34 -9 -47 4 -6 6 -15 9 -19 5 -3 -4 2 -14 13 -23
18 -15 18 -15 -10 -11 -30 5 -81 -15 -68 -27 6 -7 -31 -1 -65 10 -19 5 -16
-13 3 -24 15 -8 15 -10 0 -15 -10 -4 -15 -3 -11 3 4 6 -6 10 -22 9 -25 0 -26
-1 -8 -9 19 -8 19 -9 -2 -9 -13 -1 -23 -5 -23 -11 0 -5 -15 -10 -32 -10 -21 0
-28 -3 -20 -8 31 -20 -8 -50 -68 -53 -23 -1 -23 -2 5 -9 28 -7 27 -8 -12 -9
-26 -1 -43 4 -43 10 0 7 -10 9 -27 5 -21 -5 -24 -4 -13 4 13 8 12 10 -5 11
l-20 0 20 8 c11 5 23 7 28 4 4 -2 7 1 7 8 0 6 -8 9 -20 6 -11 -3 -18 -1 -14 4
3 5 15 9 27 9 17 1 12 5 -18 20 -44 21 -85 26 -85 10 0 -5 -12 -10 -27 -11
-25 0 -26 -1 -8 -9 18 -8 18 -9 2 -9 -13 -1 -17 -6 -12 -20 7 -23 -18 -40 -66
-46 -26 -3 -29 -1 -18 11 10 13 8 13 -15 5 -14 -6 -26 -8 -26 -6 0 3 18 12 41
21 31 13 41 23 46 45 3 16 12 29 19 29 10 0 11 6 4 26 -7 18 -7 23 1 18 8 -4
9 3 4 24 -6 31 -6 31 27 22 32 -9 32 -9 -22 43 -30 28 -81 76 -113 105 -32 28
-54 52 -50 52 19 -1 56 -29 120 -92 l69 -66 37 11 c38 12 43 30 18 61 -7 9
-11 25 -8 36 3 11 2 18 -2 16 -4 -3 -13 0 -21 5 -12 8 -12 12 -2 16 28 11 44
37 39 62 -13 61 -12 65 8 69 11 3 25 12 31 20 10 14 14 14 28 3 14 -11 17 -9
26 15 20 55 32 71 63 82 18 6 41 25 52 42 11 16 28 30 39 30 15 0 17 5 11 28
l-7 27 28 -25 c25 -23 24 -20 -8 26 -36 52 -68 107 -51 89 5 -5 26 -34 47 -62
40 -56 50 -62 60 -38 3 8 13 15 21 15 9 0 13 5 10 10 -3 6 1 10 10 10 12 0 15
6 10 23 -7 22 -7 22 8 2 16 -20 16 -20 11 1 -3 12 0 25 7 30 9 5 10 2 5 -12
-5 -15 -4 -16 5 -7 9 9 9 19 0 44 -15 44 -13 59 4 29 8 -14 14 -19 15 -12 0 6
4 12 8 12 5 0 7 -15 5 -32 -3 -27 -1 -29 6 -13 7 15 10 16 11 5 2 -8 2 -19 0
-25 -1 -5 7 -1 18 9 17 14 19 23 11 49 -15 53 -9 65 9 17 12 -33 17 -40 20
-25 3 11 13 26 23 33 11 7 19 25 20 40 1 23 2 24 7 7 8 -22 32 -32 33 -12 0 6
4 3 8 -8 6 -14 9 -4 9 34 1 29 3 56 6 59 3 3 6 -7 6 -21 l0 -27 21 21 20 20
20 -24 c26 -34 24 -54 -6 -61 -14 -4 -25 -12 -25 -19 0 -8 -4 -7 -10 3 -8 12
-10 10 -10 -10 0 -38 11 -70 22 -64 5 3 6 -5 3 -19 -6 -23 0 -34 38 -62 36
-27 40 -19 34 67 -5 84 4 60 18 -44 4 -32 11 -48 21 -48 11 0 14 23 16 118 l1
117 7 -110 c4 -60 8 -111 9 -112 0 -2 8 -3 16 -3 9 0 15 9 15 25 0 14 5 25 10
25 6 0 10 -11 10 -25 0 -20 5 -25 25 -25 13 0 29 8 34 18 9 14 10 12 11 -13 0
-23 3 -27 10 -15 5 8 10 10 10 5 0 -15 50 -17 51 -2 0 6 4 4 8 -6 4 -10 11
-18 16 -18 6 0 20 -10 32 -21 17 -16 42 -23 105 -29 46 -4 103 -13 128 -20 31
-9 108 -13 250 -11 160 1 212 -1 235 -13 21 -9 66 -14 148 -13 l117 0 0 210
c0 143 -3 207 -10 203 -15 -10 -94 30 -116 58 -37 46 -51 43 -127 -37 -40 -41
-82 -77 -93 -80 -26 -8 -51 14 -60 52 -9 38 -44 112 -54 112 -4 0 -13 -7 -20
-15 -11 -13 -15 -13 -21 -3 -14 21 -10 36 11 43 63 20 -8 25 -343 25 l-364 0
-13 -57 c-7 -32 -14 -62 -16 -68 -6 -14 4 63 12 98 l6 27 -101 0 -101 0 -1
-52 c-1 -29 -4 -41 -6 -25 -4 26 -12 31 -40 28 -16 -2 -16 4 -3 30 11 19 0 19
-670 19 l-680 0 0 -325z m1500 238 c0 -42 -2 -74 -4 -72 -7 8 -14 108 -9 129
10 36 13 21 13 -57z m-30 27 c0 -11 -2 -20 -4 -20 -2 0 -11 -3 -20 -6 -11 -4
-16 0 -16 14 0 18 11 29 33 31 4 1 7 -8 7 -19z m-560 -60 c-6 -12 -9 -34 -5
-49 4 -21 2 -28 -9 -28 -9 0 -18 9 -22 19 -8 26 -15 102 -8 95 3 -3 15 4 27
16 l22 22 3 -27 c2 -15 -2 -36 -8 -48z m751 34 c-5 -16 -10 -21 -10 -12 -1 18
10 51 15 45 2 -1 -1 -16 -5 -33z m287 14 c18 -18 15 -58 -5 -65 -9 -4 -19 -1
-21 5 -2 7 -15 12 -28 12 -14 0 -23 4 -20 9 3 5 -8 11 -25 15 -26 5 -28 8 -17
20 16 19 99 21 116 4z m-631 -55 c-3 -10 -5 -4 -5 12 0 17 2 24 5 18 2 -7 2
-21 0 -30z m330 -15 c-3 -8 -6 -5 -6 6 -1 11 2 17 5 13 3 -3 4 -12 1 -19z
m-320 -50 c-3 -7 -5 -2 -5 12 0 14 2 19 5 13 2 -7 2 -19 0 -25z m175 -18 c2
-22 0 -40 -4 -40 -5 0 -8 18 -8 40 0 22 2 40 4 40 2 0 6 -18 8 -40z m135 -2
c-3 -7 -5 -2 -5 12 0 14 2 19 5 13 2 -7 2 -19 0 -25z m-10 -130 c-2 -18 -4 -4
-4 32 0 36 2 50 4 33 2 -18 2 -48 0 -65z m517 21 c52 -41 33 -52 -107 -69
-122 -15 -127 -15 -133 2 -8 26 9 43 58 58 24 7 54 16 68 20 45 15 87 11 114
-11z m-424 -633 c0 -3 -4 -8 -10 -11 -5 -3 -10 -1 -10 4 0 6 5 11 10 11 6 0
10 -2 10 -4z m-1647 -73 c-7 -2 -21 -2 -30 0 -10 3 -4 5 12 5 17 0 24 -2 18
-5z m1262 -59 c30 -2 119 -30 144 -45 29 -19 28 -44 -1 -34 -13 5 -58 10 -100
12 -62 4 -89 0 -137 -18 -34 -12 -61 -25 -61 -29 0 -4 -9 -10 -21 -13 -12 -3
-19 -9 -16 -14 3 -4 -14 -9 -37 -10 l-41 -2 30 14 30 13 -40 1 -40 1 44 20
c24 11 53 20 65 20 20 1 20 1 -3 14 l-25 14 35 7 c19 5 28 10 21 12 -20 8 -3
23 27 23 15 0 31 4 37 9 12 12 46 19 59 12 6 -3 19 -6 30 -7z m-746 -175 c14
-40 14 -39 -5 -39 -8 0 -12 -5 -9 -11 4 -6 -1 -17 -11 -24 -11 -9 -14 -14 -6
-15 21 0 13 -20 -13 -30 -14 -5 -25 -14 -25 -20 0 -20 -2 -25 -12 -37 -7 -9
-7 -18 2 -28 11 -13 7 -15 -23 -15 -41 0 -65 21 -43 39 8 6 12 21 9 32 -4 14
5 30 31 55 42 41 44 51 14 64 -23 9 -22 9 3 9 16 1 34 11 45 26 24 32 30 32
43 -6z m1071 -35 c0 -7 3 -21 6 -31 5 -15 4 -15 -5 -3 -9 13 -11 12 -12 -5 -2
-20 -2 -25 6 -80 4 -22 2 -26 -5 -15 -6 9 -10 10 -10 3 0 -6 -9 -15 -20 -18
-11 -3 -20 -13 -20 -20 0 -8 -6 -18 -14 -22 -8 -4 -16 -19 -18 -33 -2 -14 -8
-24 -13 -23 -6 1 -11 -24 -11 -55 l-2 -57 12 50 c6 28 17 59 24 70 13 19 13
19 7 -5 -4 -14 -7 -36 -7 -50 0 -14 -4 -27 -9 -30 -5 -3 -10 -16 -12 -28 -2
-12 -7 -25 -11 -29 -4 -5 -7 -3 -6 2 4 20 -1 30 -9 17 -5 -8 -7 8 -4 40 3 43
2 49 -7 35 -7 -10 -10 -27 -7 -38 3 -10 1 -19 -4 -19 -5 0 -9 8 -9 18 0 28
-20 -8 -20 -38 0 -14 -4 -31 -9 -39 -7 -11 -12 -6 -18 20 l-9 34 -32 -65 c-17
-36 -32 -61 -32 -56 0 4 -10 -2 -21 -15 -12 -13 -9 -7 5 13 19 27 22 36 10 31
-14 -5 -15 -3 -5 18 l12 24 -20 -24 c-28 -31 -26 -23 6 35 15 27 20 44 13 37
-12 -9 -15 -7 -16 15 -1 15 1 21 3 14 3 -6 9 -10 13 -7 5 3 7 12 4 19 -3 7 2
19 11 26 8 7 15 17 15 22 0 6 -6 6 -14 -1 -12 -10 -13 -8 -8 11 5 20 3 21 -10
10 -12 -9 -17 -10 -20 -2 -2 8 -15 6 -40 -6 -21 -9 -35 -21 -32 -26 3 -4 -9
-11 -26 -15 -19 -3 -27 -9 -20 -13 7 -5 1 -10 -17 -14 -15 -4 -37 -9 -48 -12
-16 -4 -17 -3 -5 5 11 8 11 11 2 11 -7 0 -15 -6 -17 -12 -3 -7 -22 -14 -43
-15 l-37 -1 32 9 c18 5 35 14 38 19 4 6 -1 7 -12 3 -19 -7 -18 -5 11 17 13 10
17 10 12 3 -9 -16 3 -16 30 0 12 7 20 20 19 30 -2 11 3 17 15 17 24 0 36 18
16 26 -8 3 -26 -2 -41 -12 -20 -13 -29 -14 -34 -6 -6 10 -18 9 -50 -3 -65 -23
-74 -17 -11 7 30 11 59 24 64 29 6 5 15 9 20 9 6 0 5 -4 -3 -9 -9 -6 -10 -11
-2 -15 6 -4 11 -2 11 3 0 6 12 11 28 12 16 0 -4 10 -53 24 -44 13 -72 24 -62
24 10 1 16 5 12 10 -3 6 10 8 32 5 l38 -4 -32 10 c-18 6 -35 15 -38 20 -3 5
-12 7 -19 4 -7 -3 -19 2 -26 11 -7 8 -9 15 -5 15 5 0 0 10 -11 22 -18 21 -18
21 21 -2 22 -13 43 -29 47 -34 4 -6 8 -7 8 -3 0 5 12 -1 26 -12 15 -12 33 -21
40 -21 7 0 16 -4 19 -10 3 -5 -2 -9 -12 -7 -10 1 -18 -2 -18 -8 0 -5 7 -8 15
-6 8 1 45 2 82 1 76 -2 118 13 219 79 35 23 69 39 76 37 7 -3 12 -2 11 2 -3
14 14 42 23 36 5 -3 9 1 9 8 0 9 3 9 10 -2 5 -8 10 -10 10 -4 0 5 -5 15 -11
21 -6 6 -8 17 -4 24 6 9 11 7 22 -6 7 -11 13 -24 13 -31z m10 -58 c0 -3 -4 -8
-10 -11 -5 -3 -10 -1 -10 4 0 6 5 11 10 11 6 0 10 -2 10 -4z m13 -21 c-3 -9
-8 -14 -10 -11 -3 3 -2 9 2 15 9 16 15 13 8 -4z m-643 -5 c0 -5 -2 -10 -4 -10
-3 0 -8 5 -11 10 -3 6 -1 10 4 10 6 0 11 -4 11 -10z m923 -74 c-10 -19 1 -187
15 -241 22 -77 103 -137 201 -149 30 -4 66 -10 80 -13 l26 -7 -25 -6 -25 -6
32 -17 c41 -22 55 -42 23 -34 l-22 6 23 -26 24 -25 -35 21 c-19 11 -43 21 -53
21 -14 0 -9 -10 22 -42 41 -43 57 -75 24 -46 -39 33 -46 29 -13 -8 l35 -39
-40 38 c-23 20 -45 37 -50 37 -5 0 -24 14 -42 32 -18 18 -33 27 -33 21 0 -6
11 -21 25 -31 14 -11 21 -23 16 -26 -5 -3 -25 13 -45 36 -24 29 -34 37 -32 24
1 -11 8 -22 14 -24 6 -2 10 -9 8 -15 -1 -7 -1 -8 2 -4 2 5 20 -6 40 -25 22
-21 33 -26 29 -15 -4 11 -3 16 4 12 5 -4 7 -15 4 -25 -3 -10 -1 -21 5 -25 5
-3 10 -10 10 -15 0 -6 -19 10 -42 35 -23 24 -45 42 -49 39 -8 -5 -41 49 -45
74 -3 18 -24 42 -37 42 -5 0 -2 -9 8 -20 11 -12 20 -35 21 -53 0 -18 2 -32 3
-32 2 0 4 -10 5 -22 1 -12 -1 -20 -6 -17 -16 10 -8 -10 15 -36 12 -14 -1 -3
-28 26 -57 58 -63 53 -43 -42 10 -46 9 -53 -10 -72 l-20 -20 -6 40 c-8 46 0
64 10 24 3 -14 10 -26 15 -26 8 0 7 12 -9 75 -19 73 -24 142 -12 150 8 5 7 12
-5 25 -9 10 -15 21 -14 26 3 20 -2 34 -12 34 -14 0 -39 26 -40 42 0 7 -7 -5
-15 -27 -8 -22 -12 -50 -9 -62 2 -11 2 -36 -2 -53 l-6 -32 -12 28 -12 29 -6
-25 c-12 -55 -17 -93 -10 -87 4 4 10 26 14 50 5 34 7 28 5 -30 0 -40 -4 -73
-8 -73 -5 0 -8 8 -8 17 0 21 -16 6 -23 -22 -4 -18 -5 -18 -6 3 0 12 -6 22 -12
22 -8 0 -10 16 -6 51 7 58 -2 59 -14 2 l-8 -38 3 40 c2 22 6 47 8 55 3 8 3 12
1 8 -3 -5 -8 -8 -13 -8 -4 0 0 23 11 50 10 28 19 56 18 63 0 9 -2 9 -6 0 -2
-7 -9 -13 -14 -13 -6 0 -5 9 2 21 8 15 8 19 0 15 -6 -4 -18 -21 -27 -38 -8
-16 -18 -27 -21 -24 -3 3 4 22 16 42 12 20 21 47 19 59 -1 12 2 28 8 36 15 19
24 59 13 59 -5 0 -10 -4 -10 -10 -1 -5 -2 -16 -3 -22 -1 -7 -7 -12 -14 -11 -7
2 -13 -2 -13 -7 -3 -19 -5 -25 -21 -55 -10 -16 -17 -26 -18 -22 0 5 6 18 12
30 7 12 13 31 13 42 2 38 17 85 26 85 6 0 6 -8 -1 -19 -14 -27 -12 -41 3 -16
15 26 21 106 5 85 -8 -12 -9 -12 -4 3 3 10 6 24 6 30 1 7 7 -1 14 -18 7 -18
15 -25 19 -18 4 6 3 14 -3 18 -5 3 -10 11 -10 16 0 6 4 8 9 5 10 -6 25 24 16
32 -2 3 -11 -1 -20 -8 -10 -8 -15 -9 -15 -1 0 6 4 11 8 11 4 0 13 14 19 31 8
19 16 28 24 24 8 -5 9 0 4 16 -3 13 -3 19 2 13 5 -6 18 -7 33 -3 21 6 11 14
-12 10 -11 -2 -10 17 2 24 5 3 18 1 29 -5 14 -7 22 -7 26 1 4 6 13 8 21 5 7
-3 17 0 21 7 11 17 17 -48 6 -67z m-923 50 c0 -3 -4 -8 -10 -11 -5 -3 -10 -1
-10 4 0 6 5 11 10 11 6 0 10 -2 10 -4z m33 -43 c-7 -2 -21 -2 -30 0 -10 3 -4
5 12 5 17 0 24 -2 18 -5z m561 -25 c-4 -13 -9 -25 -13 -28 -3 -3 -7 -14 -8
-25 -1 -20 -1 -20 13 -1 8 11 14 15 14 9 0 -7 -5 -15 -11 -19 -7 -4 -9 -21 -6
-40 3 -19 2 -32 -2 -29 -8 4 -17 43 -24 100 -1 12 3 19 12 17 9 -2 11 3 7 13
-3 9 -2 13 4 10 6 -3 10 -1 10 4 0 6 3 11 6 11 3 0 2 -10 -2 -22z m-519 -8
c-11 -5 -36 -9 -55 -9 -47 0 -10 16 40 17 28 0 31 -1 15 -8z m35 -10 c0 -5
-10 -10 -22 -9 -22 0 -22 1 -3 9 11 5 21 9 23 9 1 1 2 -3 2 -9z m447 -92 c-3
-7 -5 -2 -5 12 0 14 2 19 5 13 2 -7 2 -19 0 -25z m738 12 c3 -5 1 -10 -4 -10
-6 0 -11 5 -11 10 0 6 2 10 4 10 3 0 8 -4 11 -10z m-1210 -10 c-3 -5 -12 -10
-18 -10 -7 0 -6 4 3 10 19 12 23 12 15 0z m-695 -19 c0 -5 12 -14 28 -19 18
-7 21 -11 9 -11 -22 -1 -50 -27 -54 -50 -1 -8 -7 -17 -12 -19 -6 -2 -11 -10
-11 -18 0 -8 -4 -14 -10 -14 -18 0 -10 27 13 43 22 16 22 16 -13 16 -34 1 -34
1 -12 17 12 8 20 20 17 25 -3 5 0 15 7 23 15 17 38 21 38 7z m1310 -5 c0 -2
-8 -10 -17 -17 -16 -13 -17 -12 -4 4 13 16 21 21 21 13z m-630 -56 c-8 -5 -19
-10 -25 -10 -5 0 -3 5 5 10 8 5 20 10 25 10 6 0 3 -5 -5 -10z m244 -7 c4 -10
4 -14 0 -10 -4 4 -14 1 -22 -6 -13 -10 -14 -9 -3 11 14 27 17 27 25 5z m223
-35 c-3 -8 -6 -5 -6 6 -1 11 2 17 5 13 3 -3 4 -12 1 -19z m-497 8 c0 -2 -13
-6 -29 -8 -17 -2 -28 -1 -25 4 5 8 54 12 54 4z m71 -16 c-13 -11 -28 -20 -35
-20 -6 0 3 9 19 19 39 25 46 25 16 1z m299 -31 c-16 -29 -23 -17 -15 22 6 26
9 29 17 16 6 -11 5 -24 -2 -38z m81 28 c-10 -9 -11 -8 -5 6 3 10 9 15 12 12 3
-3 0 -11 -7 -18z m-614 -3 c-3 -3 -12 -4 -19 -1 -8 3 -5 6 6 6 11 1 17 -2 13
-5z m506 -9 c-3 -9 -8 -14 -10 -11 -3 3 -2 9 2 15 9 16 15 13 8 -4z m-79 -47
c-4 -5 -9 -7 -12 -4 -3 3 -12 0 -21 -7 -14 -10 -14 -10 -4 4 13 16 46 23 37 7z
m-954 -3 c0 -11 -54 -65 -65 -65 -15 0 -15 31 -1 46 6 6 18 9 28 6 10 -2 18 1
18 7 0 6 5 11 10 11 6 0 10 -2 10 -5z m755 -67 c-33 -35 -60 -65 -62 -67 -2
-2 -3 -1 -3 3 0 8 110 126 118 126 3 0 -21 -28 -53 -62z m1155 52 c0 -5 -2
-10 -4 -10 -3 0 -8 5 -11 10 -3 6 -1 10 4 10 6 0 11 -4 11 -10z m-1230 -25 c0
-2 -13 -11 -30 -20 -38 -19 -40 -11 -2 9 31 17 32 18 32 11z m130 -8 c0 -2
-12 -14 -27 -28 l-28 -24 24 28 c23 25 31 32 31 24z m-600 -57 c0 -5 -7 -7
-15 -4 -8 4 -15 8 -15 10 0 2 7 4 15 4 8 0 15 -4 15 -10z m550 -4 c0 -2 -8
-10 -17 -17 -16 -13 -17 -12 -4 4 13 16 21 21 21 13z m-883 -73 c-35 -65 -46
-98 -35 -104 5 -4 -2 -6 -16 -6 -14 0 -26 0 -26 2 0 5 48 94 64 118 24 35 33
28 13 -10z m453 23 c0 -9 -40 -13 -46 -5 -3 5 6 9 20 9 14 0 26 -2 26 -4z
m390 -10 c0 -2 -8 -10 -17 -17 -16 -13 -17 -12 -4 4 13 16 21 21 21 13z m530
-24 c0 -5 -7 -17 -15 -28 -14 -18 -14 -17 -4 9 12 27 19 34 19 19z m-920 -16
c-7 -7 -13 -7 -20 0 -6 6 -3 10 10 10 13 0 16 -4 10 -10z m-46 -4 c2 -4 -4 -8
-14 -8 -10 0 -16 4 -14 8 3 4 9 8 14 8 5 0 11 -4 14 -8z m96 4 c0 -2 -7 -7
-16 -10 -8 -3 -12 -2 -9 4 6 10 25 14 25 6z m290 -36 c-6 -11 -13 -20 -16 -20
-2 0 0 9 6 20 6 11 13 20 16 20 2 0 0 -9 -6 -20z m-70 7 c0 -2 -12 -14 -27
-28 l-28 -24 24 28 c23 25 31 32 31 24z m-293 -13 c-3 -3 -12 -4 -19 -1 -8 3
-5 6 6 6 11 1 17 -2 13 -5z m1216 -82 c3 -36 1 -60 -4 -56 -5 3 -9 33 -9 66 0
77 6 72 13 -10z m-1717 16 c-9 -5 -16 -18 -16 -28 0 -11 -5 -20 -12 -20 -6 0
-8 -3 -5 -7 4 -3 0 -17 -9 -31 -8 -13 -13 -29 -11 -36 3 -7 -3 -19 -14 -27
-24 -17 -25 -32 -1 -27 9 2 27 -6 38 -18 20 -21 26 -22 90 -13 38 5 94 13 125
17 31 5 65 5 75 1 11 -4 43 -8 72 -8 28 -1 52 -5 52 -10 0 -5 -27 -9 -59 -8
-32 1 -57 5 -56 8 7 10 -110 9 -125 -2 -12 -8 -11 -9 5 -7 24 2 123 -21 130
-31 5 -9 -57 -1 -70 9 -10 8 -71 13 -115 10 -14 -1 1 -8 36 -15 34 -8 77 -21
95 -29 34 -16 34 -16 4 -10 -16 3 -26 2 -22 -2 9 -9 91 -34 124 -38 13 -1 26
-6 30 -9 11 -12 35 -8 27 5 -5 7 -3 8 6 3 17 -11 -15 -35 -44 -34 -21 0 -21 0
-1 10 15 7 11 8 -15 3 -100 -18 -104 -22 -23 -20 89 1 101 -10 22 -20 -28 -4
-45 -10 -39 -14 8 -5 6 -9 -7 -13 -10 -3 -36 -13 -58 -22 l-40 -16 38 6 c21 3
46 8 55 11 18 5 -4 -6 -84 -43 -28 -13 -57 -23 -65 -23 -8 0 -26 -6 -40 -14
-27 -14 -125 -15 -174 -1 -32 8 -94 65 -73 65 10 0 9 3 -1 9 -11 7 -10 11 5
20 11 6 13 11 6 11 -8 0 -11 8 -7 22 2 13 6 37 9 53 5 40 25 113 42 152 8 17
14 36 14 42 0 6 4 19 10 29 5 9 21 43 34 74 20 44 29 56 42 51 15 -5 15 -7 0
-15z m222 -9 c53 -12 108 -26 122 -32 l25 -11 -29 -4 c-17 -2 -50 -1 -75 3
-37 6 -42 9 -26 16 18 7 18 8 -5 8 -32 1 -151 39 -127 40 10 1 62 -8 115 -20z
m1469 -112 c-2 -23 -3 -1 -3 48 0 50 1 68 3 42 2 -26 2 -67 0 -90z m347 107
c3 -8 2 -12 -4 -9 -6 3 -10 10 -10 16 0 14 7 11 14 -7z m-1730 -69 c25 -4 46
-12 46 -17 0 -6 -11 -7 -27 -2 -16 4 -40 8 -55 8 -14 1 -24 4 -22 8 2 3 1 8
-3 11 -5 2 -3 3 3 1 6 -1 32 -6 58 -9z m1721 -3 c-3 -3 -11 0 -18 7 -9 10 -8
11 6 5 10 -3 15 -9 12 -12z m-1988 -8 c-3 -3 -12 -4 -19 -1 -8 3 -5 6 6 6 11
1 17 -2 13 -5z m201 -9 c35 -5 49 -11 40 -16 -10 -7 -9 -9 4 -9 9 0 19 -4 22
-9 4 -5 -20 -3 -51 5 -32 8 -70 17 -86 20 -15 4 -30 10 -32 14 -5 8 23 7 103
-5z m1491 -179 c2 -126 -6 -84 -11 64 -4 84 -3 113 2 75 4 -33 8 -96 9 -139z
m-1326 177 c-7 -2 -21 -2 -30 0 -10 3 -4 5 12 5 17 0 24 -2 18 -5z m-16 -19
c-3 -3 -12 -4 -19 -1 -8 3 -5 6 6 6 11 1 17 -2 13 -5z m-412 -24 c-3 -5 -11
-10 -16 -10 -6 0 -7 5 -4 10 3 6 11 10 16 10 6 0 7 -4 4 -10z m110 0 c-3 -5
-24 -10 -46 -10 -21 0 -39 5 -39 10 0 6 21 10 46 10 27 0 43 -4 39 -10z m72
-6 c-3 -3 -12 -4 -19 -1 -8 3 -5 6 6 6 11 1 17 -2 13 -5z m116 -1 c-13 -2 -35
-2 -50 0 -16 2 -5 4 22 4 28 0 40 -2 28 -4z m-268 -31 c-3 -3 -11 0 -18 7 -9
10 -8 11 6 5 10 -3 15 -9 12 -12z m1672 -39 c-3 -10 -5 -2 -5 17 0 19 2 27 5
18 2 -10 2 -26 0 -35z m-1266 7 c-13 -11 -33 -20 -45 -19 l-21 0 21 9 c12 5
25 13 29 19 3 6 14 11 23 11 14 -1 13 -4 -7 -20z m24 -49 c-12 -10 -65 -24
-65 -16 0 2 15 9 33 14 43 12 42 12 32 2z m1282 -173 c-3 -8 -6 -5 -6 6 -1 11
2 17 5 13 3 -3 4 -12 1 -19z m606 -246 c-3 -12 -9 -22 -14 -22 -12 0 -11 7 3
30 15 24 19 21 11 -8z m-383 8 c0 -5 -5 -10 -11 -10 -5 0 -7 5 -4 10 3 6 8 10
11 10 2 0 4 -4 4 -10z"/>
<path d="M1118 1613 c7 -3 16 -2 19 1 4 3 -2 6 -13 5 -11 0 -14 -3 -6 -6z"/>
<path d="M1636 1417 c3 -10 9 -15 12 -12 3 3 0 11 -7 18 -10 9 -11 8 -5 -6z"/>
<path d="M1616 1393 c-6 -14 -5 -15 5 -6 7 7 10 15 7 18 -3 3 -9 -2 -12 -12z"/>
<path d="M1208 1333 c7 -3 16 -2 19 1 4 3 -2 6 -13 5 -11 0 -14 -3 -6 -6z"/>
<path d="M1198 1203 c7 -3 16 -2 19 1 4 3 -2 6 -13 5 -11 0 -14 -3 -6 -6z"/>
<path d="M1800 1065 c-6 -8 -10 -19 -8 -26 2 -6 9 0 16 15 13 29 10 33 -8 11z"/>
<path d="M1808 928 c-3 -7 -1 -24 3 -38 6 -22 7 -20 8 13 1 38 -3 47 -11 25z"/>
<path d="M1981 888 c-1 -23 9 -48 21 -48 7 0 7 4 0 13 -5 6 -12 21 -15 32 -3
15 -5 16 -6 3z"/>
<path d="M2029 821 c14 -26 31 -36 31 -19 0 7 -9 19 -21 26 -19 12 -19 11 -10
-7z"/>
<path d="M1812 800 c0 -19 2 -27 5 -17 2 9 2 25 0 35 -3 9 -5 1 -5 -18z"/>
<path d="M407 1193 c-13 -13 -7 -21 13 -16 11 3 17 9 14 14 -6 11 -18 12 -27
2z"/>
<path d="M113 512 c-10 -17 -8 -19 15 -18 17 1 27 7 27 16 0 22 -28 23 -42 2z"/>
<path d="M220 487 c-31 -10 -33 -11 -11 -15 13 -2 31 3 39 12 18 18 19 18 -28
3z"/>
<path d="M258 463 c7 -3 16 -2 19 1 4 3 -2 6 -13 5 -11 0 -14 -3 -6 -6z"/>
<path d="M350 390 l-25 -8 25 -1 c14 0 32 4 40 9 13 9 13 10 0 9 -8 -1 -26 -5
-40 -9z"/>
<path d="M198 373 c12 -2 32 -2 45 0 12 2 2 4 -23 4 -25 0 -35 -2 -22 -4z"/>
<path d="M380 366 c0 -2 7 -6 15 -10 8 -3 15 -1 15 4 0 6 -7 10 -15 10 -8 0
-15 -2 -15 -4z"/>
<path d="M320 320 c0 -5 15 -10 33 -10 24 0 28 3 17 10 -20 13 -50 13 -50 0z"/>
<path d="M428 313 c7 -3 16 -2 19 1 4 3 -2 6 -13 5 -11 0 -14 -3 -6 -6z"/>
<path d="M478 673 c6 -2 18 -2 25 0 6 3 1 5 -13 5 -14 0 -19 -2 -12 -5z"/>
<path d="M1375 2800 c3 -5 8 -10 11 -10 2 0 4 5 4 10 0 6 -5 10 -11 10 -5 0
-7 -4 -4 -10z"/>
<path d="M1391 2504 c0 -11 3 -14 6 -6 3 7 2 16 -1 19 -3 4 -6 -2 -5 -13z"/>
<path d="M86 2121 c-8 -12 30 -44 43 -37 6 4 4 14 -7 26 -18 22 -28 25 -36 11z"/>
<path d="M2000 1975 c0 -8 9 -15 20 -15 11 0 20 2 20 5 0 2 -9 9 -20 15 -16 9
-20 8 -20 -5z"/>
<path d="M760 1961 c0 -5 7 -12 16 -15 24 -9 28 -7 14 9 -14 17 -30 20 -30 6z"/>
<path d="M725 1850 c3 -5 8 -10 11 -10 2 0 4 5 4 10 0 6 -5 10 -11 10 -5 0 -7
-4 -4 -10z"/>
<path d="M2050 1850 c8 -5 12 -10 7 -10 -4 0 -1 -10 7 -22 8 -13 18 -47 22
-75 7 -55 18 -68 27 -33 13 50 -32 150 -67 150 -6 0 -4 -5 4 -10z"/>
<path d="M1170 1816 c0 -2 7 -7 16 -10 8 -3 12 -2 9 4 -6 10 -25 14 -25 6z"/>
<path d="M1138 1783 c7 -3 16 -2 19 1 4 3 -2 6 -13 5 -11 0 -14 -3 -6 -6z"/>
<path d="M2736 691 c-4 -7 -5 -15 -2 -18 9 -9 19 4 14 18 -4 11 -6 11 -12 0z"/>
<path d="M2801 664 c0 -11 3 -14 6 -6 3 7 2 16 -1 19 -3 4 -6 -2 -5 -13z"/>
<path d="M2335 600 c3 -5 8 -10 11 -10 2 0 4 5 4 10 0 6 -5 10 -11 10 -5 0 -7
-4 -4 -10z"/>
<path d="M2775 581 c-6 -10 -22 -41 -37 -69 -16 -28 -28 -62 -27 -74 0 -15 3
-18 6 -8 3 8 23 50 44 93 21 42 35 77 31 77 -4 0 -12 -8 -17 -19z"/>
<path d="M2090 423 c0 -24 20 -54 32 -47 8 5 9 1 4 -12 -5 -14 -4 -16 5 -7 9
9 8 17 -5 34 -25 37 -18 47 10 14 17 -21 22 -23 14 -8 -17 35 -60 54 -60 26z"/>
<path d="M2792 406 c-6 -15 -12 -39 -11 -54 0 -24 2 -23 15 13 18 48 15 81 -4
41z"/>
<path d="M2710 279 c0 -5 5 -7 10 -4 6 3 10 8 10 11 0 2 -4 4 -10 4 -5 0 -10
-5 -10 -11z"/>
<path d="M2752 278 c-14 -14 -16 -28 -3 -28 9 0 24 30 18 36 -2 2 -9 -2 -15
-8z"/>
<path d="M2796 137 c-5 -10 -15 -16 -22 -13 -11 4 -13 -3 -9 -29 4 -35 -2 -42
-21 -27 -5 4 -1 -1 9 -10 11 -11 14 -19 7 -23 -8 -5 -7 -11 1 -21 20 -24 51
38 47 95 -3 34 -6 41 -12 28z"/>
<path d="M2741 104 c0 -11 3 -14 6 -6 3 7 2 16 -1 19 -3 4 -6 -2 -5 -13z"/>
<path d="M2357 16 c-4 -10 -1 -13 8 -9 8 3 12 9 9 14 -7 12 -11 11 -17 -5z"/>
</g>
</svg>
